<svg xmlns="http://www.w3.org/2000/svg" width="192" height="192" viewBox="0 0 192 192">
  <!-- Background -->
  <rect width="192" height="192" fill="#FAF7F2" rx="32"/>

  <!-- Book shadow -->
  <rect x="30" y="28" width="136" height="140" rx="8" fill="#1E3A5F" opacity="0.2" transform="translate(4, 4)"/>

  <!-- Book cover -->
  <rect x="30" y="24" width="136" height="144" rx="8" fill="#1E3A5F"/>

  <!-- Book spine -->
  <rect x="30" y="24" width="20" height="144" fill="#152D4A" rx="8"/>
  <rect x="42" y="24" width="8" height="144" fill="#1E3A5F"/>

  <!-- Pages -->
  <rect x="54" y="32" width="104" height="128" rx="4" fill="#FAF7F2"/>

  <!-- Gold cross on pages -->
  <rect x="100" y="52" width="8" height="56" rx="2" fill="#C9A227"/>
  <rect x="80" y="72" width="48" height="8" rx="2" fill="#C9A227"/>

  <!-- Page text lines -->
  <rect x="64" y="120" width="80" height="4" rx="2" fill="#E8E3DA"/>
  <rect x="64" y="132" width="60" height="4" rx="2" fill="#E8E3DA"/>
  <rect x="64" y="144" width="70" height="4" rx="2" fill="#E8E3DA"/>

  <!-- Bookmark ribbon -->
  <path d="M140 24 L140 56 L148 46 L156 56 L156 24" fill="#C9A227"/>

  <!-- Gold corner accent -->
  <path d="M158 160 L166 152 L166 168 L150 168 Z" fill="#C9A227"/>
</svg>
